<svg version="1.1" preserveAspectRatio="xMidYMid meet" xmlns="http://www.w3.org/2000/svg" xmlns:xlink="http://www.w3.org/1999/xlink" viewBox="-270.325 0 1540.65 1000"><defs><g transform="matrix(6.223, 0, 0, 6.223, 257.725, 273.976)" fill="#fff" stroke="none" stroke-width="1" id="def-0e96bddd-f528-43f8-bbd1-d3c772a6a37a"><g transform="translate(-11.065, -33.989)"><g></g><path d=" M29.399,57.112 c0.615,0.308,1.077,0.846,1.077,1.383 c0,1.039 -1.038,1.961 -1.999,1.462 l-15.223 -7.881 c-0.846 -0.499 -1.576 -0.808 -1.576 -1.884 c0 -1.115,0.692 -1.385,1.576 -1.922 l15.223 -7.881 c1.038 -0.346,1.999,0.424,1.999,1.462 c0,0.575 -0.461,1.114 -1.077,1.423 l-13.761,6.918 L29.399,57.112 z"></path><path d=" M29.033,60.209 c-0.208,0 -0.413 -0.052 -0.608 -0.152 l-15.223 -7.881 c-0.086 -0.05 -0.165 -0.095 -0.242 -0.141 c-0.748 -0.431 -1.395 -0.804 -1.395 -1.843 c0 -1.057,0.594 -1.406,1.346 -1.849 c0.093 -0.054,0.187 -0.11,0.284 -0.169 l15.229 -7.885 c0.195 -0.066,0.377 -0.097,0.558 -0.097 c0.9,0,1.606,0.728,1.606,1.658 c0,0.587 -0.437,1.172 -1.139,1.522 l-13.562,6.818 l13.562,6.818 c0.691,0.346,1.139,0.93,1.139,1.484 C30.588,59.407,29.861,60.209,29.033,60.209 z M28.982,40.419 c-0.156,0 -0.314,0.026 -0.47,0.078 L13.306,48.37 c-0.091,0.057 -0.188,0.113 -0.281,0.167 c-0.743,0.439 -1.234,0.728 -1.234,1.655 c0,0.91,0.537,1.219,1.281,1.648 c0.079,0.045,0.158,0.09,0.239,0.139 l15.217,7.877 c0.162,0.084,0.332,0.127,0.504,0.127 c0.697,0,1.33 -0.709,1.33 -1.488 c0 -0.465 -0.407 -0.98 -1.014 -1.283 l-13.962 -7.02 l13.962 -7.02 c0.616 -0.308,1.014 -0.828,1.014 -1.321 C30.363,41.048,29.756,40.419,28.982,40.419 z"></path><path d=" M46.385,64.416 c-0.231,0.691 -0.922,1.077 -1.614,0.961 c-0.769 -0.153 -1.269 -0.885 -1.154 -1.692 c0 -0.076,0.039 -0.191,0.077 -0.307 l9.88 -27.831 c0.23 -0.692,0.922 -1.038,1.614 -0.923 c0.73,0.154,1.269,0.885,1.153,1.652 c0,0.078 -0.039,0.193 -0.077,0.27 L46.385,64.416 z"></path><path d=" M45.016,65.511 c-0.088,0 -0.177 -0.008 -0.263 -0.022 c-0.837 -0.167 -1.371 -0.949 -1.247 -1.819 c-0.001 -0.076,0.038 -0.193,0.079 -0.318 l9.883 -27.842 c0.207 -0.618,0.778 -1.02,1.457 -1.02 c0.094,0,0.188,0.009,0.281,0.023 c0.812,0.172,1.369,0.97,1.247,1.781 c0.001,0.086 -0.047,0.22 -0.087,0.302 l-9.875,27.856 C46.281,65.084,45.688,65.511,45.016,65.511 z M54.925,34.715 c-0.58,0 -1.068,0.34 -1.244,0.867 l-9.88,27.833 c-0.035,0.104 -0.07,0.213 -0.07,0.27 c-0.108,0.767,0.349,1.439,1.062,1.582 c0.071,0.012,0.147,0.018,0.223,0.018 c0.575,0,1.083 -0.363,1.263 -0.904 l9.881 -27.872 c0.041 -0.085,0.07 -0.182,0.07 -0.231 c0.105 -0.712 -0.373 -1.396 -1.064 -1.543 C55.089,34.722,55.007,34.715,54.925,34.715 z"></path><path d=" M84.362,50.192 L70.6,43.274 c-0.614 -0.309 -1.075 -0.848 -1.075 -1.423 c0 -1.038,1.037 -1.962,1.998 -1.462 l15.223,7.881 c0.885,0.537,1.576,0.807,1.576,1.922 c0,1.076 -0.73,1.385 -1.576,1.884 l-15.223,7.881 c-0.961,0.499 -1.998 -0.423 -1.998 -1.462 c0 -0.537,0.461 -1.075,1.075 -1.383 L84.362,50.192 z"></path><path d=" M70.967,60.209 c-0.828,0 -1.556 -0.802 -1.556 -1.714 c0 -0.555,0.447 -1.139,1.139 -1.484 l13.562 -6.818 L70.55,43.374 c-0.702 -0.352 -1.139 -0.936 -1.139 -1.522 c0 -0.913,0.728 -1.714,1.556 -1.714 c0.209,0,0.413,0.051,0.608,0.152 l15.223,7.881 c0.104,0.062,0.198,0.119,0.29,0.173 c0.753,0.442,1.347,0.792,1.347,1.849 c0,1.039 -0.646,1.412 -1.395,1.843 c-0.078,0.046 -0.157,0.091 -0.237,0.138 l-15.228,7.884 C71.38,60.157,71.176,60.209,70.967,60.209 z M70.967,40.363 c-0.696,0 -1.33,0.709 -1.33,1.488 c0,0.493,0.397,1.013,1.014,1.321 l13.962,7.02 l-13.962,7.02 c-0.606,0.305 -1.014,0.82 -1.014,1.283 c0,0.779,0.634,1.488,1.33,1.488 c0.172,0,0.342 -0.043,0.504 -0.127 l15.223 -7.88 c0.075 -0.046,0.155 -0.091,0.233 -0.136 c0.744 -0.43,1.282 -0.738,1.282 -1.648 c0 -0.928 -0.491 -1.216 -1.235 -1.655 c-0.093 -0.054 -0.188 -0.11 -0.287 -0.17 l-15.216 -7.876 C71.309,40.405,71.139,40.363,70.967,40.363 z"></path></g></g><path d="M140.815,598.589 L140.815,636.671 L120.111,636.671 L120.111,592.344 Q120.111,584.131,117.362,580.024 Q114.612,575.917,108.707,575.917 L108.707,575.917 Q100.764,575.917,97.167,581.755 Q93.569,587.593,93.569,600.965 L93.569,600.965 L93.569,636.671 L72.865,636.671 L72.865,560.779 L88.681,560.779 L91.465,570.486 L92.619,570.486 Q95.673,565.26,101.443,562.307 Q107.213,559.354,114.68,559.354 L114.68,559.354 Q131.719,559.354,137.76,570.486 L137.76,570.486 L139.593,570.486 Q142.648,565.192,148.587,562.273 Q154.527,559.354,161.994,559.354 L161.994,559.354 Q174.891,559.354,181.51,565.972 Q188.128,572.591,188.128,587.185 L188.128,587.185 L188.128,636.671 L167.357,636.671 L167.357,592.344 Q167.357,584.131,164.607,580.024 Q161.858,575.917,155.952,575.917 L155.952,575.917 Q148.35,575.917,144.582,581.348 Q140.815,586.778,140.815,598.589 L140.815,598.589 Z M291.753,636.671 L277.294,636.671 L273.289,626.353 L272.746,626.353 Q267.519,632.938,261.987,635.483 Q256.454,638.029,247.562,638.029 L247.562,638.029 Q236.633,638.029,230.354,631.784 Q224.075,625.539,224.075,613.999 L224.075,613.999 Q224.075,601.916,232.526,596.18 Q240.977,590.444,258.016,589.833 L258.016,589.833 L271.185,589.425 L271.185,586.099 Q271.185,574.559,259.373,574.559 L259.373,574.559 Q250.277,574.559,237.991,580.058 L237.991,580.058 L231.134,566.074 Q244.236,559.218,260.188,559.218 L260.188,559.218 Q275.461,559.218,283.607,565.87 Q291.753,572.523,291.753,586.099 L291.753,586.099 L291.753,636.671 Z M271.185,607.754 L271.185,601.508 L263.175,601.78 Q254.146,602.051,249.734,605.038 Q245.322,608.025,245.322,614.134 L245.322,614.134 Q245.322,622.891,255.368,622.891 L255.368,622.891 Q262.564,622.891,266.874,618.75 Q271.185,614.61,271.185,607.754 L271.185,607.754 Z M356.821,638.029 L356.821,638.029 Q343.448,638.029,335.811,627.643 Q328.175,617.257,328.175,598.861 L328.175,598.861 Q328.175,580.194,335.947,569.774 Q343.719,559.354,357.364,559.354 L357.364,559.354 Q371.687,559.354,379.222,570.486 L379.222,570.486 L379.9,570.486 Q378.339,562.001,378.339,555.349 L378.339,555.349 L378.339,531.047 L399.111,531.047 L399.111,636.671 L383.227,636.671 L379.222,626.828 L378.339,626.828 Q371.279,638.029,356.821,638.029 Z M364.084,621.534 L364.084,621.534 Q372.026,621.534,375.726,616.918 Q379.425,612.302,379.765,601.237 L379.765,601.237 L379.765,598.997 Q379.765,586.778,375.997,581.483 Q372.23,576.188,363.745,576.188 L363.745,576.188 Q356.821,576.188,352.985,582.06 Q349.15,587.932,349.15,599.133 L349.15,599.133 Q349.15,610.333,353.019,615.933 Q356.889,621.534,364.084,621.534 Z M471.917,574.084 L471.917,574.084 Q465.333,574.084,461.599,578.259 Q457.866,582.434,457.323,590.104 L457.323,590.104 L486.376,590.104 Q486.24,582.434,482.371,578.259 Q478.502,574.084,471.917,574.084 Z M474.836,638.029 L474.836,638.029 Q456.508,638.029,446.19,627.914 Q435.872,617.8,435.872,599.268 L435.872,599.268 Q435.872,580.194,445.409,569.774 Q454.947,559.354,471.782,559.354 L471.782,559.354 Q487.869,559.354,496.83,568.518 Q505.79,577.682,505.79,593.838 L505.79,593.838 L505.79,603.884 L456.848,603.884 Q457.187,612.709,462.074,617.664 Q466.962,622.62,475.787,622.62 L475.787,622.62 Q482.643,622.62,488.752,621.194 Q494.861,619.769,501.514,616.646 L501.514,616.646 L501.514,632.666 Q496.083,635.381,489.906,636.705 Q483.729,638.029,474.836,638.029 Z M605.003,636.671 L590.544,636.671 L586.539,626.353 L585.996,626.353 Q580.769,632.938,575.236,635.483 Q569.704,638.029,560.812,638.029 L560.812,638.029 Q549.883,638.029,543.603,631.784 Q537.324,625.539,537.324,613.999 L537.324,613.999 Q537.324,601.916,545.776,596.18 Q554.227,590.444,571.265,589.833 L571.265,589.833 L584.434,589.425 L584.434,586.099 Q584.434,574.559,572.623,574.559 L572.623,574.559 Q563.527,574.559,551.24,580.058 L551.24,580.058 L544.384,566.074 Q557.485,559.218,573.438,559.218 L573.438,559.218 Q588.711,559.218,596.857,565.87 Q605.003,572.523,605.003,586.099 L605.003,586.099 L605.003,636.671 Z M584.434,607.754 L584.434,601.508 L576.424,601.78 Q567.396,602.051,562.984,605.038 Q558.571,608.025,558.571,614.134 L558.571,614.134 Q558.571,622.891,568.618,622.891 L568.618,622.891 Q575.813,622.891,580.124,618.75 Q584.434,614.61,584.434,607.754 L584.434,607.754 Z M645.158,541.161 L645.158,541.161 Q645.158,531.047,656.426,531.047 L656.426,531.047 Q667.694,531.047,667.694,541.161 L667.694,541.161 Q667.694,545.981,664.877,548.662 Q662.06,551.344,656.426,551.344 L656.426,551.344 Q645.158,551.344,645.158,541.161 Z M666.744,560.779 L666.744,636.671 L646.04,636.671 L646.04,560.779 L666.744,560.779 Z M705.27,626.964 L705.27,626.964 Q705.27,621.262,708.325,618.343 Q711.379,615.424,717.217,615.424 L717.217,615.424 Q722.851,615.424,725.94,618.411 Q729.029,621.398,729.029,626.964 L729.029,626.964 Q729.029,632.327,725.906,635.415 Q722.784,638.504,717.217,638.504 L717.217,638.504 Q711.515,638.504,708.393,635.483 Q705.27,632.463,705.27,626.964 Z M798.373,638.029 L798.373,638.029 Q762.939,638.029,762.939,599.133 L762.939,599.133 Q762.939,579.786,772.578,569.57 Q782.217,559.354,800.206,559.354 L800.206,559.354 Q813.375,559.354,823.829,564.513 L823.829,564.513 L817.719,580.533 Q812.832,578.564,808.623,577.309 Q804.414,576.053,800.206,576.053 L800.206,576.053 Q784.05,576.053,784.05,598.997 L784.05,598.997 Q784.05,621.262,800.206,621.262 L800.206,621.262 Q806.179,621.262,811.27,619.667 Q816.362,618.072,821.453,614.677 L821.453,614.677 L821.453,632.395 Q816.429,635.585,811.304,636.807 Q806.179,638.029,798.373,638.029 Z M928.811,587.185 L928.811,636.671 L908.107,636.671 L908.107,592.344 Q908.107,584.131,905.188,580.024 Q902.269,575.917,895.888,575.917 L895.888,575.917 Q887.199,575.917,883.33,581.721 Q879.461,587.525,879.461,600.965 L879.461,600.965 L879.461,636.671 L858.757,636.671 L858.757,560.779 L874.573,560.779 L877.356,570.486 L878.51,570.486 Q881.972,564.988,888.048,562.171 Q894.123,559.354,901.862,559.354 L901.862,559.354 Q915.099,559.354,921.955,566.515 Q928.811,573.677,928.811,587.185 L928.811,587.185 Z" id="def-613d40b1-7da1-43c0-a967-a642189f69e6"></path><path d="M202.454,715.127 L202.454,715.127 Q205.848,715.127,208.143,713.213 Q210.437,711.299,210.627,708.258 L210.627,708.258 L213.75,708.258 Q213.614,710.946,212.066,713.159 Q210.518,715.372,207.953,716.621 Q205.387,717.87,202.454,717.87 L202.454,717.87 Q196.671,717.87,193.29,713.851 Q189.91,709.833,189.91,703.045 L189.91,703.045 L189.91,702.067 Q189.91,697.723,191.43,694.383 Q192.951,691.043,195.788,689.224 Q198.626,687.405,202.427,687.405 L202.427,687.405 Q207.26,687.405,210.396,690.283 Q213.532,693.161,213.75,697.858 L213.75,697.858 L210.627,697.858 Q210.41,694.41,208.143,692.292 Q205.875,690.174,202.427,690.174 L202.427,690.174 Q198.028,690.174,195.598,693.351 Q193.168,696.528,193.168,702.257 L193.168,702.257 L193.168,703.207 Q193.168,708.828,195.598,711.978 Q198.028,715.127,202.454,715.127 Z M220.554,702.854 L220.554,702.203 Q220.554,697.967,222.197,694.573 Q223.84,691.179,226.84,689.292 Q229.84,687.405,233.642,687.405 L233.642,687.405 Q239.507,687.405,243.145,691.518 Q246.784,695.632,246.784,702.42 L246.784,702.42 L246.784,703.099 Q246.784,707.362,245.141,710.769 Q243.498,714.177,240.511,716.024 Q237.525,717.87,233.696,717.87 L233.696,717.87 Q227.858,717.87,224.206,713.756 Q220.554,709.643,220.554,702.854 L220.554,702.854 Z M223.812,702.501 L223.812,703.099 Q223.812,708.366,226.541,711.747 Q229.27,715.127,233.696,715.127 L233.696,715.127 Q238.095,715.127,240.824,711.747 Q243.552,708.366,243.552,702.827 L243.552,702.827 L243.552,702.203 Q243.552,698.836,242.303,696.039 Q241.054,693.242,238.801,691.708 Q236.547,690.174,233.642,690.174 L233.642,690.174 Q229.297,690.174,226.555,693.582 Q223.812,696.989,223.812,702.501 L223.812,702.501 Z M254.294,702.746 L254.294,702.366 Q254.294,695.523,257.349,691.464 Q260.403,687.405,265.644,687.405 L265.644,687.405 Q271.59,687.405,274.713,692.102 L274.713,692.102 L274.713,675.62 L277.944,675.62 L277.944,717.327 L274.903,717.327 L274.767,713.417 Q271.645,717.87,265.59,717.87 L265.59,717.87 Q260.512,717.87,257.403,713.783 Q254.294,709.697,254.294,702.746 L254.294,702.746 Z M257.58,702.936 L257.58,702.936 Q257.58,708.557,259.833,711.801 Q262.087,715.046,266.187,715.046 L266.187,715.046 Q272.188,715.046,274.713,709.751 L274.713,709.751 L274.713,695.958 Q272.188,690.228,266.241,690.228 L266.241,690.228 Q262.141,690.228,259.86,693.446 Q257.58,696.664,257.58,702.936 Z M292.243,687.948 L292.243,717.327 L288.984,717.327 L288.984,687.948 L292.243,687.948 Z M288.414,679.449 L288.414,679.449 Q288.414,678.526,289.012,677.888 Q289.609,677.249,290.641,677.249 Q291.673,677.249,292.283,677.888 Q292.894,678.526,292.894,679.449 Q292.894,680.372,292.283,680.997 Q291.673,681.621,290.641,681.621 Q289.609,681.621,289.012,680.997 Q288.414,680.372,288.414,679.449 Z M303.174,687.948 L306.27,687.948 L306.378,692.971 Q308.035,690.256,310.506,688.83 Q312.977,687.405,315.963,687.405 L315.963,687.405 Q320.688,687.405,322.996,690.066 Q325.304,692.726,325.331,698.048 L325.331,698.048 L325.331,717.327 L322.1,717.327 L322.1,698.021 Q322.073,694.084,320.43,692.156 Q318.787,690.228,315.176,690.228 L315.176,690.228 Q312.162,690.228,309.84,692.116 Q307.519,694.003,306.406,697.207 L306.406,697.207 L306.406,717.327 L303.174,717.327 L303.174,687.948 Z M334.525,702.8 L334.525,702.366 Q334.525,695.469,337.58,691.437 Q340.634,687.405,345.875,687.405 L345.875,687.405 Q351.876,687.405,354.998,692.183 L354.998,692.183 L355.161,687.948 L358.202,687.948 L358.202,716.729 Q358.202,722.404,355.025,725.717 Q351.848,729.03,346.418,729.03 L346.418,729.03 Q343.35,729.03,340.566,727.658 Q337.783,726.287,336.181,724.006 L336.181,724.006 L338.001,722.051 Q341.449,726.287,346.201,726.287 L346.201,726.287 Q350.274,726.287,352.554,723.884 Q354.835,721.481,354.917,717.218 L354.917,717.218 L354.917,713.525 Q351.794,717.87,345.821,717.87 L345.821,717.87 Q340.716,717.87,337.62,713.797 Q334.525,709.724,334.525,702.8 L334.525,702.8 Z M337.81,702.936 L337.81,702.936 Q337.81,708.557,340.064,711.801 Q342.318,715.046,346.418,715.046 L346.418,715.046 Q352.419,715.046,354.917,709.67 L354.917,709.67 L354.917,696.012 Q353.776,693.188,351.631,691.708 Q349.486,690.228,346.472,690.228 L346.472,690.228 Q342.372,690.228,340.091,693.446 Q337.81,696.664,337.81,702.936 Z M395.271,715.127 L395.271,715.127 Q398.665,715.127,400.96,713.213 Q403.254,711.299,403.444,708.258 L403.444,708.258 L406.567,708.258 Q406.431,710.946,404.883,713.159 Q403.335,715.372,400.77,716.621 Q398.204,717.87,395.271,717.87 L395.271,717.87 Q389.488,717.87,386.107,713.851 Q382.727,709.833,382.727,703.045 L382.727,703.045 L382.727,702.067 Q382.727,697.723,384.247,694.383 Q385.768,691.043,388.605,689.224 Q391.443,687.405,395.244,687.405 L395.244,687.405 Q400.077,687.405,403.213,690.283 Q406.349,693.161,406.567,697.858 L406.567,697.858 L403.444,697.858 Q403.227,694.41,400.96,692.292 Q398.692,690.174,395.244,690.174 L395.244,690.174 Q390.845,690.174,388.415,693.351 Q385.985,696.528,385.985,702.257 L385.985,702.257 L385.985,703.207 Q385.985,708.828,388.415,711.978 Q390.845,715.127,395.271,715.127 Z M418.394,675.62 L418.394,692.917 Q419.996,690.283,422.494,688.844 Q424.992,687.405,427.952,687.405 L427.952,687.405 Q432.677,687.405,434.985,690.066 Q437.293,692.726,437.32,698.048 L437.32,698.048 L437.32,717.327 L434.089,717.327 L434.089,698.021 Q434.061,694.084,432.419,692.156 Q430.776,690.228,427.165,690.228 L427.165,690.228 Q424.151,690.228,421.829,692.116 Q419.508,694.003,418.394,697.207 L418.394,697.207 L418.394,717.327 L415.163,717.327 L415.163,675.62 L418.394,675.62 Z M469.811,717.327 L466.335,717.327 Q465.846,715.942,465.711,713.227 L465.711,713.227 Q464,715.453,461.353,716.662 Q458.705,717.87,455.746,717.87 L455.746,717.87 Q451.51,717.87,448.89,715.508 Q446.269,713.145,446.269,709.534 L446.269,709.534 Q446.269,705.244,449.84,702.746 Q453.41,700.248,459.791,700.248 L459.791,700.248 L465.684,700.248 L465.684,696.908 Q465.684,693.758,463.742,691.953 Q461.801,690.147,458.081,690.147 L458.081,690.147 Q454.687,690.147,452.46,691.885 Q450.234,693.623,450.234,696.066 L450.234,696.066 L446.975,696.039 Q446.975,692.536,450.234,689.97 Q453.492,687.405,458.244,687.405 L458.244,687.405 Q463.158,687.405,465.996,689.862 Q468.833,692.319,468.915,696.718 L468.915,696.718 L468.915,710.62 Q468.915,714.883,469.811,717.001 L469.811,717.001 L469.811,717.327 Z M456.126,714.992 L456.126,714.992 Q459.384,714.992,461.95,713.417 Q464.516,711.842,465.684,709.208 L465.684,709.208 L465.684,702.746 L459.873,702.746 Q455.013,702.8,452.27,704.524 Q449.528,706.249,449.528,709.262 L449.528,709.262 Q449.528,711.733,451.36,713.363 Q453.193,714.992,456.126,714.992 Z M479.683,687.948 L482.779,687.948 L482.888,692.971 Q484.544,690.256,487.015,688.83 Q489.486,687.405,492.472,687.405 L492.472,687.405 Q497.197,687.405,499.505,690.066 Q501.813,692.726,501.84,698.048 L501.84,698.048 L501.84,717.327 L498.609,717.327 L498.609,698.021 Q498.582,694.084,496.939,692.156 Q495.296,690.228,491.685,690.228 L491.685,690.228 Q488.671,690.228,486.349,692.116 Q484.028,694.003,482.915,697.207 L482.915,697.207 L482.915,717.327 L479.683,717.327 L479.683,687.948 Z M511.034,702.8 L511.034,702.366 Q511.034,695.469,514.089,691.437 Q517.143,687.405,522.384,687.405 L522.384,687.405 Q528.385,687.405,531.507,692.183 L531.507,692.183 L531.67,687.948 L534.711,687.948 L534.711,716.729 Q534.711,722.404,531.534,725.717 Q528.357,729.03,522.927,729.03 L522.927,729.03 Q519.859,729.03,517.076,727.658 Q514.292,726.287,512.69,724.006 L512.69,724.006 L514.51,722.051 Q517.958,726.287,522.71,726.287 L522.71,726.287 Q526.783,726.287,529.063,723.884 Q531.344,721.481,531.426,717.218 L531.426,717.218 L531.426,713.525 Q528.303,717.87,522.33,717.87 L522.33,717.87 Q517.225,717.87,514.129,713.797 Q511.034,709.724,511.034,702.8 L511.034,702.8 Z M514.32,702.936 L514.32,702.936 Q514.32,708.557,516.573,711.801 Q518.827,715.046,522.927,715.046 L522.927,715.046 Q528.928,715.046,531.426,709.67 L531.426,709.67 L531.426,696.012 Q530.285,693.188,528.14,691.708 Q525.995,690.228,522.981,690.228 L522.981,690.228 Q518.881,690.228,516.6,693.446 Q514.32,696.664,514.32,702.936 Z M556.667,717.87 L556.667,717.87 Q552.92,717.87,549.892,716.024 Q546.865,714.177,545.181,710.878 Q543.498,707.579,543.498,703.479 L543.498,703.479 L543.498,702.311 Q543.498,698.076,545.141,694.681 Q546.783,691.287,549.716,689.346 Q552.648,687.405,556.07,687.405 L556.07,687.405 Q561.419,687.405,564.555,691.057 Q567.691,694.709,567.691,701.035 L567.691,701.035 L567.691,702.854 L546.729,702.854 L546.729,703.479 Q546.729,708.475,549.594,711.801 Q552.458,715.127,556.803,715.127 L556.803,715.127 Q559.409,715.127,561.405,714.177 Q563.401,713.227,565.03,711.136 L565.03,711.136 L567.066,712.684 Q563.482,717.87,556.667,717.87 Z M556.07,690.174 L556.07,690.174 Q552.404,690.174,549.892,692.862 Q547.381,695.55,546.838,700.085 L546.838,700.085 L564.46,700.085 L564.46,699.732 Q564.324,695.496,562.043,692.835 Q559.762,690.174,556.07,690.174 Z M593.546,680.426 L596.804,680.426 L596.804,687.948 L602.886,687.948 L602.886,690.609 L596.804,690.609 L596.804,710.186 Q596.804,712.629,597.687,713.824 Q598.569,715.019,600.633,715.019 L600.633,715.019 Q601.447,715.019,603.266,714.747 L603.266,714.747 L603.402,717.408 Q602.126,717.87,599.927,717.87 L599.927,717.87 Q596.587,717.87,595.066,715.928 Q593.546,713.987,593.546,710.213 L593.546,710.213 L593.546,690.609 L588.142,690.609 L588.142,687.948 L593.546,687.948 L593.546,680.426 Z M614.958,675.62 L614.958,692.917 Q616.56,690.283,619.058,688.844 Q621.557,687.405,624.516,687.405 L624.516,687.405 Q629.241,687.405,631.549,690.066 Q633.857,692.726,633.884,698.048 L633.884,698.048 L633.884,717.327 L630.653,717.327 L630.653,698.021 Q630.626,694.084,628.983,692.156 Q627.34,690.228,623.729,690.228 L623.729,690.228 Q620.715,690.228,618.393,692.116 Q616.072,694.003,614.958,697.207 L614.958,697.207 L614.958,717.327 L611.727,717.327 L611.727,675.62 L614.958,675.62 Z M655.731,717.87 L655.731,717.87 Q651.984,717.87,648.956,716.024 Q645.929,714.177,644.245,710.878 Q642.562,707.579,642.562,703.479 L642.562,703.479 L642.562,702.311 Q642.562,698.076,644.205,694.681 Q645.847,691.287,648.78,689.346 Q651.712,687.405,655.134,687.405 L655.134,687.405 Q660.483,687.405,663.619,691.057 Q666.755,694.709,666.755,701.035 L666.755,701.035 L666.755,702.854 L645.793,702.854 L645.793,703.479 Q645.793,708.475,648.658,711.801 Q651.522,715.127,655.867,715.127 L655.867,715.127 Q658.473,715.127,660.469,714.177 Q662.465,713.227,664.094,711.136 L664.094,711.136 L666.13,712.684 Q662.546,717.87,655.731,717.87 Z M655.134,690.174 L655.134,690.174 Q651.468,690.174,648.956,692.862 Q646.445,695.55,645.902,700.085 L645.902,700.085 L663.524,700.085 L663.524,699.732 Q663.388,695.496,661.107,692.835 Q658.826,690.174,655.134,690.174 Z M691.632,687.948 L697.85,710.566 L698.339,713.091 L698.991,710.43 L706.05,687.948 L708.82,687.948 L715.798,710.24 L716.559,713.335 L717.183,710.484 L723.211,687.948 L726.578,687.948 L718.025,717.327 L715.255,717.327 L707.707,694.03 L707.354,692.428 L707.001,694.057 L699.588,717.327 L696.818,717.327 L688.293,687.948 L691.632,687.948 Z M733.056,702.854 L733.056,702.203 Q733.056,697.967,734.699,694.573 Q736.342,691.179,739.342,689.292 Q742.343,687.405,746.144,687.405 L746.144,687.405 Q752.009,687.405,755.648,691.518 Q759.286,695.632,759.286,702.42 L759.286,702.42 L759.286,703.099 Q759.286,707.362,757.643,710.769 Q756.001,714.177,753.014,716.024 Q750.027,717.87,746.198,717.87 L746.198,717.87 Q740.361,717.87,736.709,713.756 Q733.056,709.643,733.056,702.854 L733.056,702.854 Z M736.315,702.501 L736.315,703.099 Q736.315,708.366,739.044,711.747 Q741.773,715.127,746.198,715.127 L746.198,715.127 Q750.597,715.127,753.326,711.747 Q756.055,708.366,756.055,702.827 L756.055,702.827 L756.055,702.203 Q756.055,698.836,754.806,696.039 Q753.557,693.242,751.303,691.708 Q749.049,690.174,746.144,690.174 L746.144,690.174 Q741.8,690.174,739.057,693.582 Q736.315,696.989,736.315,702.501 L736.315,702.501 Z M781.758,687.758 L781.676,690.717 Q780.644,690.527,779.477,690.527 L779.477,690.527 Q776.436,690.527,774.331,692.224 Q772.227,693.921,771.331,697.152 L771.331,697.152 L771.331,717.327 L768.1,717.327 L768.1,687.948 L771.277,687.948 L771.331,692.618 Q773.911,687.405,779.613,687.405 L779.613,687.405 Q780.97,687.405,781.758,687.758 L781.758,687.758 Z M787.096,702.746 L787.096,702.366 Q787.096,695.523,790.151,691.464 Q793.205,687.405,798.446,687.405 L798.446,687.405 Q804.392,687.405,807.515,692.102 L807.515,692.102 L807.515,675.62 L810.746,675.62 L810.746,717.327 L807.705,717.327 L807.569,713.417 Q804.446,717.87,798.391,717.87 L798.391,717.87 Q793.314,717.87,790.205,713.783 Q787.096,709.697,787.096,702.746 L787.096,702.746 Z M790.381,702.936 L790.381,702.936 Q790.381,708.557,792.635,711.801 Q794.889,715.046,798.989,715.046 L798.989,715.046 Q804.99,715.046,807.515,709.751 L807.515,709.751 L807.515,695.958 Q804.99,690.228,799.043,690.228 L799.043,690.228 Q794.943,690.228,792.662,693.446 Q790.381,696.664,790.381,702.936 Z" id="def-502ac071-236d-411d-82b0-b75afc95ab70"></path><mask id="mask-61b6ba32-344b-47e7-adf6-1485e35ed8c5" x="36.984" y="250.947" width="926.031" height="506.628" maskUnits="userSpaceOnUse" stroke-width="0"><rect x="60.013" y="273.976" width="879.974" height="460.571" fill="#000"></rect><use xlink:href="#def-0e96bddd-f528-43f8-bbd1-d3c772a6a37a" fill="#fff" stroke="#fff"></use><use xlink:href="#def-613d40b1-7da1-43c0-a967-a642189f69e6" fill="#fff" stroke="#fff"></use><use xlink:href="#def-502ac071-236d-411d-82b0-b75afc95ab70" fill="#fff" stroke="#fff"></use></mask></defs><rect id="background-073463b0-639e-4682-adda-920c3af981ba" x="-270.325" y="0" width="1540.65" height="1000" fill="#fffaf3"></rect><g mask="url(#mask-61b6ba32-344b-47e7-adf6-1485e35ed8c5)"><rect x="60.013" y="273.976" width="879.974" height="460.571" fill="#08b7aa"></rect></g></svg>